<svg width="16" height="17" viewBox="0 0 16 17" fill="none" xmlns="http://www.w3.org/2000/svg">
<path d="M10.4715 16.8753C9.74918 16.8918 9.05572 16.7536 8.39002 16.4747C7.88158 16.2617 7.42477 15.9586 6.96795 15.6558C5.86214 14.9225 4.90209 14.0251 4.0236 13.0366C3.41582 12.3525 2.82278 11.6562 2.29178 10.9096C1.65537 10.0146 1.08164 9.083 0.64109 8.07371C0.348043 7.40237 0.11378 6.71259 0.0328717 5.98139C-0.0998778 4.77883 0.160849 3.6856 0.972097 2.75614C1.39052 2.27655 1.92325 1.9874 2.53277 1.82385C2.9757 1.70499 3.42254 1.66334 3.87914 1.70542C4.19257 1.73449 4.41469 1.90064 4.58106 2.15508C4.73832 2.39563 4.81554 2.6672 4.87866 2.94333C5.08625 3.84893 5.30077 4.75302 5.43417 5.67381C5.46259 5.86968 5.414 6.03583 5.27735 6.17813C5.13028 6.33126 4.9548 6.44124 4.76175 6.52583C4.52271 6.63082 4.28281 6.73429 4.04442 6.84057C3.99475 6.8627 3.9479 6.89241 3.90278 6.92321C3.78088 7.00651 3.73554 7.12017 3.75875 7.26789C3.79997 7.5297 3.87372 7.77915 3.98065 8.02295C4.40363 8.98712 4.9407 9.87884 5.63807 10.6699C6.13631 11.2354 6.69725 11.7315 7.31349 12.1655C7.4996 12.2965 7.6805 12.4349 7.8651 12.5679C8.02236 12.6811 8.19632 12.7596 8.3846 12.8065C8.50585 12.8366 8.61452 12.8097 8.71213 12.7351C8.84141 12.6364 8.94119 12.5115 9.0221 12.372C9.15984 12.1347 9.29541 11.8959 9.49431 11.7026C9.5711 11.628 9.65504 11.5601 9.74181 11.4972C9.88085 11.3964 10.0377 11.3777 10.1997 11.4287C10.5713 11.5456 10.9422 11.6632 11.2992 11.8235C11.6797 11.9942 12.0734 12.1352 12.4512 12.3113C12.8154 12.4809 13.1675 12.6772 13.5226 12.8657C13.5868 12.8998 13.6434 12.9501 13.6987 12.9987C13.8351 13.1191 13.905 13.2713 13.9121 13.4542C13.9319 13.9546 13.8102 14.4242 13.5983 14.8721C13.2673 15.5712 12.7801 16.1302 12.0977 16.5072C11.6708 16.743 11.209 16.8541 10.724 16.8747C10.6398 16.8783 10.5554 16.8751 10.4713 16.8751L10.4715 16.8753Z" fill="#3975EA"/>
<path d="M15.9999 8.65493C15.9999 8.80655 16.0025 8.95839 15.9993 9.11001C15.9943 9.34362 15.8247 9.51368 15.6058 9.50956C15.3856 9.50544 15.2225 9.32237 15.2303 9.08702C15.2694 7.89704 15.0674 6.74872 14.6221 5.64551C14.0603 4.25359 13.174 3.10852 11.968 2.21528C10.9902 1.49101 9.90105 1.01012 8.70978 0.761106C8.51911 0.721194 8.39222 0.578467 8.38506 0.393658C8.37812 0.213839 8.4933 0.0541927 8.67204 0.0116781C8.73342 -0.00285493 8.80348 -0.00393949 8.8653 0.00907517C10.4937 0.352662 11.9316 1.07367 13.1573 2.20183C14.3002 3.25341 15.0991 4.52755 15.5698 6.0071C15.8438 6.86824 15.9867 7.75128 15.9999 8.65493Z" fill="#3975EA"/>
<path d="M13.7587 8.37776C13.7587 8.4617 13.7596 8.54196 13.7587 8.622C13.7557 8.84281 13.5843 9.01417 13.3694 9.01222C13.1553 9.01027 12.9889 8.8337 12.9889 8.61332C12.9889 7.37606 12.6529 6.24096 11.9362 5.22821C11.2185 4.21393 10.2554 3.52632 9.08255 3.12807C8.91921 3.07255 8.75111 3.0309 8.5843 2.98665C8.40101 2.93784 8.28106 2.78622 8.28323 2.59903C8.2854 2.42593 8.41121 2.27193 8.58821 2.23679C8.64244 2.22594 8.70339 2.22507 8.75675 2.23831C10.4064 2.64436 11.7269 3.53196 12.6761 4.94752C13.3713 5.98436 13.7088 7.13898 13.7585 8.37797L13.7587 8.37776Z" fill="#3975EA"/>
<path d="M11.4731 8.12417C11.4731 8.16842 11.474 8.21267 11.4731 8.25692C11.4673 8.49162 11.3035 8.65799 11.0812 8.65539C10.8632 8.653 10.7014 8.47709 10.7048 8.2413C10.7107 7.84002 10.6454 7.45066 10.491 7.08083C10.1003 6.14464 9.39904 5.56983 8.4199 5.32667C8.23466 5.28069 8.11883 5.15835 8.09952 4.97484C8.08326 4.82083 8.17458 4.66488 8.32207 4.59677C8.40342 4.55924 8.48888 4.55273 8.57543 4.57225C9.99468 4.89133 11.1252 5.98543 11.4065 7.49036C11.4456 7.69881 11.461 7.9116 11.4875 8.12244C11.4827 8.12309 11.4781 8.12352 11.4734 8.12417H11.4731Z" fill="#3975EA"/>
</svg>
