<svg width="16" height="12" viewBox="0 0 16 12" fill="none" xmlns="http://www.w3.org/2000/svg">
<path d="M15.6418 0.31629C13.092 2.49987 10.5511 4.67592 7.99633 6.8639C5.44931 4.68271 2.90816 2.50666 0.361328 0.32583C0.597812 0.072101 0.900159 0.00201817 1.2236 0.00165124C2.98522 -0.000733779 4.74683 0.000550367 6.50844 0.000550367C9.24461 0.000550367 11.981 0.000917315 14.7171 0C15.0542 0 15.3666 0.0667805 15.6416 0.31629H15.6418Z" fill="#3975EA"/>
<path d="M6.01287 6.27295C6.67425 6.85104 7.33288 7.42675 7.99537 8.00594C8.65529 7.42877 9.31062 6.85563 9.9764 6.27332C11.8644 7.89091 13.7458 9.50282 15.6339 11.1204C15.3937 11.3617 15.1018 11.4367 14.7894 11.4391C14.0702 11.4448 13.351 11.4409 12.6317 11.4409C8.83233 11.4409 5.03299 11.4415 1.23365 11.44C0.910024 11.44 0.607677 11.3672 0.351562 11.1241C2.23738 9.50814 4.11916 7.89568 6.01287 6.27313V6.27295Z" fill="#3975EA"/>
<path d="M15.9994 1.00781V10.5029C14.1545 8.93599 12.3256 7.38297 10.4746 5.81088C12.3127 4.21291 14.1446 2.62027 15.9994 1.00781Z" fill="#3975EA"/>
<path d="M0 1.01904C1.84252 2.61884 3.6744 4.20947 5.5182 5.81055C3.6755 7.37512 1.84454 8.92979 0 10.4958V1.01904Z" fill="#3975EA"/>
</svg>
